<?xml version="1.0" encoding="UTF-8"?>
<svg version="1.1" xmlns="http://www.w3.org/2000/svg" width="420" height="198">
<path d="M0 0 C12.87 0 25.74 0 39 0 C39 8.91 39 17.82 39 27 C26.13 27 13.26 27 0 27 C0 18.09 0 9.18 0 0 Z " fill="#ECF2F8" transform="translate(193,24)"/>
<path d="M0 0 C118.14 0 236.28 0 358 0 C358 0.66 358 1.32 358 2 C239.86 2 121.72 2 0 2 C0 1.34 0 0.68 0 0 Z " fill="#6C6D6F" transform="translate(33,134)"/>
<path d="M0 0 C13.46807161 -0.49424116 13.46807161 -0.49424116 15.9296875 1.79296875 C17.47376884 4.9769321 17.31693702 7.51369273 17 11 C16.01 12.485 16.01 12.485 15 14 C15.80161791 16.67145537 15.80161791 16.67145537 17 19 C17.66 19 18.32 19 19 19 C19.2475 17.72125 19.495 16.4425 19.75 15.125 C20.91164561 9.830253 22.86340266 4.96810741 25 0 C26.98 0 28.96 0 31 0 C38 15.03045685 38 15.03045685 38 21 C36.02 21 34.04 21 32 21 C31.67 20.01 31.34 19.02 31 18 C29.02 17.67 27.04 17.34 25 17 C24.67 18.32 24.34 19.64 24 21 C22.06372231 21.10807131 20.12572244 21.1856225 18.1875 21.25 C16.56908203 21.31960937 16.56908203 21.31960937 14.91796875 21.390625 C12 21 12 21 10.11328125 19.109375 C9 17 9 17 9 15 C8.01 15 7.02 15 6 15 C6 16.98 6 18.96 6 21 C4.02 21 2.04 21 0 21 C0 14.07 0 7.14 0 0 Z M6 5 C6 6.32 6 7.64 6 9 C7.65 9 9.3 9 11 9 C11 7.68 11 6.36 11 5 C9.35 5 7.7 5 6 5 Z M28 8 C27.67 9.32 27.34 10.64 27 12 C27.66 12 28.32 12 29 12 C28.67 10.68 28.34 9.36 28 8 Z " fill="#6B6C6F" transform="translate(354,153)"/>
<path d="M0 0 C2.31 0 4.62 0 7 0 C8.98 3.96 10.96 7.92 13 12 C15.15016583 9.13311223 16.67007588 6.88949817 18.1875 3.75 C18.53167969 3.04359375 18.87585938 2.3371875 19.23046875 1.609375 C19.61138672 0.81273438 19.61138672 0.81273438 20 0 C22.31 0 24.62 0 27 0 C27 8.91 27 17.82 27 27 C25.02 27 23.04 27 21 27 C20.505 20.565 20.505 20.565 20 14 C19.13375 15.9490625 19.13375 15.9490625 18.25 17.9375 C17.265625 20.15234375 17.265625 20.15234375 16 22 C14.68 22.33 13.36 22.66 12 23 C9.525 19.04 9.525 19.04 7 15 C6.67 18.96 6.34 22.92 6 27 C4.02 27 2.04 27 0 27 C0 18.09 0 9.18 0 0 Z " fill="#005AA4" transform="translate(309,89)"/>
<path d="M0 0 C5 0 5 0 6.57739258 1.28515625 C7.01204834 1.87167969 7.4467041 2.45820312 7.89453125 3.0625 C8.37470703 3.69414063 8.85488281 4.32578125 9.34960938 4.9765625 C9.83236328 5.64429687 10.31511719 6.31203125 10.8125 7 C11.31458984 7.66773437 11.81667969 8.33546875 12.33398438 9.0234375 C13.57020191 10.67172755 14.78701654 12.3345376 16 14 C16.33 9.38 16.66 4.76 17 0 C18.98 0 20.96 0 23 0 C23 8.91 23 17.82 23 27 C21.02 27 19.04 27 17 27 C14.88943792 24.83593071 13.31235903 22.95202325 11.625 20.5 C11.17511719 19.87996094 10.72523438 19.25992188 10.26171875 18.62109375 C9.15696443 17.09324204 8.0760739 15.54818537 7 14 C6.67 18.29 6.34 22.58 6 27 C4.02 27 2.04 27 0 27 C0 18.09 0 9.18 0 0 Z " fill="#005AA6" transform="translate(118,89)"/>
<path d="M0 0 C2.206875 -0.061875 4.41375 -0.12375 6.6875 -0.1875 C8.54955078 -0.23970703 8.54955078 -0.23970703 10.44921875 -0.29296875 C14.22021735 0.01816975 16.00684747 0.7537626 19 3 C21.13101351 5.71219902 21.00025633 6.99641144 20.75 10.5 C20 14 20 14 18.6875 16 C17.75548162 17.97494981 17.75548162 17.97494981 18.76171875 19.7265625 C19.80518946 21.50595467 20.90092263 23.25440653 22 25 C22 25.66 22 26.32 22 27 C19.69 27 17.38 27 15 27 C11 20.25 11 20.25 11 18 C9.35 18 7.7 18 6 18 C6 20.97 6 23.94 6 27 C4.02 27 2.04 27 0 27 C0 18.09 0 9.18 0 0 Z M6 6 C6 8.31 6 10.62 6 13 C8.31 13 10.62 13 13 13 C13.66 11.35 14.32 9.7 15 8 C13.04366025 5.58878141 13.04366025 5.58878141 9.375 5.875 C7.704375 5.936875 7.704375 5.936875 6 6 Z " fill="#005AA4" transform="translate(285,89)"/>
<path d="M0 0 C4.86953166 2.43476583 7.18709505 4.86343599 9 10 C9.5609452 15.23548855 8.82799347 18.55601027 6 23 C3.01807493 26.32599335 -0.46893038 26.73102758 -4.75390625 27.0546875 C-8.26080265 26.9693022 -10.19631705 26.08646173 -13 24 C-15.74568756 20.681225 -16.89088346 17.76381575 -17.5 13.5 C-16.89249438 9.24746066 -15.75574031 6.30176935 -13 3 C-8.68266618 0.0258367 -5.18923924 -0.6486549 0 0 Z M-8.8125 7.0625 C-10.66225706 10.08052467 -10.93931504 12.48027215 -11 16 C-9.610911 19.04913936 -9.610911 19.04913936 -7 21 C-4 21.83333333 -4 21.83333333 -1 21 C1.610911 19.04913936 1.610911 19.04913936 3 16 C2.93931504 12.48027215 2.66225706 10.08052467 0.8125 7.0625 C-2.3979727 5.18049876 -5.6020273 5.18049876 -8.8125 7.0625 Z " fill="#0059A5" transform="translate(106,89)"/>
<path d="M0 0 C4.10557659 1.81409198 6.59617014 4.22255308 9 8 C10.56181535 13.62253527 9.77951205 16.92020212 7 22 C3.82573183 25.76944346 1.6364479 26.84561812 -3.3125 27.3125 C-8.61064075 26.86350502 -11.45790324 24.79911289 -14.875 20.8125 C-16.48047982 16.79880044 -16.67667379 13.26304489 -16 9 C-12.40999371 1.81998741 -8.00691158 -0.85788338 0 0 Z M-8.375 7.5625 C-10.6085569 10.91283535 -10.49398209 13.0481433 -10 17 C-9.11670357 19.53958234 -9.11670357 19.53958234 -7 21 C-3.5 21.66666667 -3.5 21.66666667 0 21 C2.4348407 18.72748201 3.80349705 16.34055023 4 13 C2.44412487 9.22109239 2.44412487 9.22109239 0 6 C-3.52371092 5.60847656 -5.37616451 5.58958192 -8.375 7.5625 Z " fill="#005AA6" transform="translate(234,89)"/>
<path d="M0 0 C2.31 0 4.62 0 7 0 C10 5.75 10 5.75 10 8 C10.66 8 11.32 8 12 8 C12.309375 7.05125 12.61875 6.1025 12.9375 5.125 C14 2 14 2 15 0 C17.31 0 19.62 0 22 0 C22 6.93 22 13.86 22 21 C20.02 21 18.04 21 16 21 C15.67 18.69 15.34 16.38 15 14 C14.34 15.32 13.68 16.64 13 18 C11.68 18 10.36 18 9 18 C8.34 16.68 7.68 15.36 7 14 C6.67 16.31 6.34 18.62 6 21 C4.02 21 2.04 21 0 21 C0 14.07 0 7.14 0 0 Z " fill="#6C6D70" transform="translate(34,153)"/>
<path d="M0 0 C5.94 0 11.88 0 18 0 C18 1.98 18 3.96 18 6 C14.04 6 10.08 6 6 6 C6 7.65 6 9.3 6 11 C9.63 11 13.26 11 17 11 C17 12.65 17 14.3 17 16 C13.37 16 9.74 16 6 16 C6 17.65 6 19.3 6 21 C10.29 21 14.58 21 19 21 C19 22.98 19 24.96 19 27 C12.73 27 6.46 27 0 27 C0 18.09 0 9.18 0 0 Z " fill="#005AA5" transform="translate(340,89)"/>
<path d="M0 0 C0.845625 0.495 1.69125 0.99 2.5625 1.5 C1.9025 3.15 1.2425 4.8 0.5625 6.5 C-3.0675 5.84 -6.6975 5.18 -10.4375 4.5 C-10.1075 5.49 -9.7775 6.48 -9.4375 7.5 C-6.67644328 8.66558253 -3.87239639 9.47593081 -1.00390625 10.33984375 C1.5625 11.5 1.5625 11.5 2.921875 13.4375 C3.85167383 16.43099869 3.39009672 18.50791955 2.5625 21.5 C0.98183106 23.49301736 -0.16836702 24.36543351 -2.4375 25.5 C-8.42953232 25.90623948 -12.07948848 25.17900576 -17.4375 22.5 C-17.1075 20.85 -16.7775 19.2 -16.4375 17.5 C-13.5220524 17.5 -11.09595519 17.90863269 -8.25 18.5 C-7.34894531 18.685625 -6.44789063 18.87125 -5.51953125 19.0625 C-4.83246094 19.206875 -4.14539063 19.35125 -3.4375 19.5 C-3.7675 18.51 -4.0975 17.52 -4.4375 16.5 C-6.96162249 15.32352163 -6.96162249 15.32352163 -9.9375 14.4375 C-11.78831477 13.84361743 -13.62708972 13.20754959 -15.4375 12.5 C-17.02660767 9.32178465 -16.84170974 5.96060271 -16.4375 2.5 C-12.69373884 -3.02650458 -5.49638223 -2.39842134 0 0 Z " fill="#0059A5" transform="translate(213.4375,90.5)"/>
<path d="M0 0 C14.19642857 -0.66964286 14.19642857 -0.66964286 17.875 2 C20.2364915 5.33387035 20.80098326 7.06418413 20.4375 11.0625 C19.66856153 14.46779895 18.79364955 15.87150511 16 18 C12.62547028 18.40727083 9.38081215 18.29033692 6 18 C6 20.97 6 23.94 6 27 C4.02 27 2.04 27 0 27 C0 18.09 0 9.18 0 0 Z M6 6 C6 8.31 6 10.62 6 13 C8.91652174 13.16681109 8.91652174 13.16681109 12 13 C12.66 12.34 13.32 11.68 14 11 C13.67958603 8.39719432 13.67958603 8.39719432 13 6 C10.69 6 8.38 6 6 6 Z " fill="#005AA7" transform="translate(153,89)"/>
<path d="M0 0 C1.4540625 0.0309375 1.4540625 0.0309375 2.9375 0.0625 C4.44551568 3.99697709 5.94252914 7.93554977 7.4375 11.875 C7.86675781 12.99455078 8.29601562 14.11410156 8.73828125 15.26757812 C9.14433594 16.34072266 9.55039063 17.41386719 9.96875 18.51953125 C10.34580078 19.50928955 10.72285156 20.49904785 11.11132812 21.51879883 C11.9375 24.0625 11.9375 24.0625 11.9375 27.0625 C9.9575 27.0625 7.9775 27.0625 5.9375 27.0625 C5.2775 24.7525 4.6175 22.4425 3.9375 20.0625 C0.9675 20.0625 -2.0025 20.0625 -5.0625 20.0625 C-5.206875 21.031875 -5.35125 22.00125 -5.5 23 C-6.0625 26.0625 -6.0625 26.0625 -7.0625 27.0625 C-9.06208364 27.10330783 -11.06295254 27.10504356 -13.0625 27.0625 C-11.33422783 20.7558226 -9.22552164 14.62144941 -6.9375 8.5 C-6.67179199 7.78521484 -6.40608398 7.07042969 -6.13232422 6.33398438 C-3.76857396 0.07690967 -3.76857396 0.07690967 0 0 Z M-1.0625 8.0625 C-1.7225 10.7025 -2.3825 13.3425 -3.0625 16.0625 C-1.4125 16.0625 0.2375 16.0625 1.9375 16.0625 C1.49046014 11.58366304 1.49046014 11.58366304 -1.0625 8.0625 Z " fill="#0059A5" transform="translate(184.0625,88.9375)"/>
<path d="M0 0 C2.29949654 1.12300994 3.9825011 2.38600088 6 4 C5.67 5.32 5.34 6.64 5 8 C3.125 8.625 3.125 8.625 1 9 C0.34 8.34 -0.32 7.68 -1 7 C-3.68839385 6.73008094 -6.29141936 6.91262643 -9 7 C-10.14341544 12.87026131 -10.14341544 12.87026131 -8.9375 18.5625 C-6.19441575 20.59769154 -4.32914611 20.42499738 -1 20 C-0.34 19.34 0.32 18.68 1 18 C3.5625 18.25 3.5625 18.25 6 19 C6.33 19.66 6.66 20.32 7 21 C3.23193958 24.97173936 1.23545957 26.78910759 -4.3125 27.3125 C-8.75886282 26.93568959 -10.63948122 25.90226622 -14 23 C-17.05146436 18.52451893 -17.95053785 14.29132736 -17 9 C-13.32139701 1.77903857 -8.20291352 -1.51905806 0 0 Z " fill="#005AA6" transform="translate(82,89)"/>
<path d="M0 0 C6 0 6 0 7.8984375 1.75 C8.38570312 2.4925 8.87296875 3.235 9.375 4 C9.87773438 4.7425 10.38046875 5.485 10.8984375 6.25 C11.26195313 6.8275 11.62546875 7.405 12 8 C12.33 5.36 12.66 2.72 13 0 C14.98 0 16.96 0 19 0 C19 6.93 19 13.86 19 21 C14 21 14 21 11.98046875 19.03125 C11.38878906 18.1959375 10.79710938 17.360625 10.1875 16.5 C9.28064453 15.24703125 9.28064453 15.24703125 8.35546875 13.96875 C7.90816406 13.3190625 7.46085937 12.669375 7 12 C6.67 14.97 6.34 17.94 6 21 C4.02 21 2.04 21 0 21 C0 14.07 0 7.14 0 0 Z " fill="#6C6D70" transform="translate(68,153)"/>
<path d="M0 0 C12.04167848 -0.60816558 12.04167848 -0.60816558 16.25 2.0625 C18.37069037 5.62223026 19 7.84764246 19 12 C17.04472662 18.27745665 17.04472662 18.27745665 14.27734375 20.19140625 C9.72164494 21.80895283 4.76771581 21.103646 0 21 C0 14.07 0 7.14 0 0 Z M6 5 C6 8.63 6 12.26 6 16 C7.65 15.67 9.3 15.34 11 15 C13.29637779 12.24104365 13.29637779 12.24104365 12.75 9.4375 C12.16191948 6.84999433 12.16191948 6.84999433 10 5 C8.68 5 7.36 5 6 5 Z " fill="#6C6E71" transform="translate(212,153)"/>
<path d="M0 0 C2.86027695 2.10757249 3.81407876 3.44223629 4.9375 6.8125 C5.03278558 11.67206443 3.49887679 15.27906739 0.3125 18.9375 C-3.15630962 20.5312774 -6.31111222 20.72928108 -10 20 C-13.41184222 18.07696166 -15.42958014 16.65940323 -16.73046875 12.875 C-17.43932032 8.72014724 -17.20578454 6.45272599 -15.4375 2.5625 C-10.55472168 -2.57067721 -6.40535652 -2.60958969 0 0 Z M-9 4 C-11.33296251 6.82717213 -11.33296251 6.82717213 -10.75 10.0625 C-10.2406756 13.099459 -10.2406756 13.099459 -8 15 C-5.46048456 14.90888062 -5.46048456 14.90888062 -3 14 C-0.70362221 11.24104365 -0.70362221 11.24104365 -1.25 8.4375 C-1.83808052 5.84999433 -1.83808052 5.84999433 -4 4 C-6.5 3.58333333 -6.5 3.58333333 -9 4 Z " fill="#6B6C6F" transform="translate(198,154)"/>
<path d="M0 0 C5.94 0 11.88 0 18 0 C18 1.98 18 3.96 18 6 C14.04 6 10.08 6 6 6 C6 7.65 6 9.3 6 11 C9.3 11 12.6 11 16 11 C16 12.65 16 14.3 16 16 C12.7 16 9.4 16 6 16 C6 19.63 6 23.26 6 27 C4.02 27 2.04 27 0 27 C0 18.09 0 9.18 0 0 Z " fill="#005AA5" transform="translate(255,89)"/>
<path d="M0 0 C6.6 0 13.2 0 20 0 C20 4.62 20 9.24 20 14 C13.4 14 6.8 14 0 14 C0 9.38 0 4.76 0 0 Z " fill="#ED282E" transform="translate(212,24)"/>
<path d="M0 0 C12.49040512 -0.37100213 12.49040512 -0.37100213 14.8671875 1.359375 C16.41007813 3.59390626 16.80220396 5.2967875 17 8 C16.34964186 9.34136367 15.6837045 10.67532254 15 12 C15.4101037 15.1783037 16.7719961 18.05279064 18 21 C14.6875 21.3125 14.6875 21.3125 11 21 C9.25 18.5625 9.25 18.5625 8 16 C7.01 15.67 6.02 15.34 5 15 C5 16.98 5 18.96 5 21 C3.35 21 1.7 21 0 21 C0 14.07 0 7.14 0 0 Z M5 5 C5 6.32 5 7.64 5 9 C6.65 9 8.3 9 10 9 C10 7.68 10 6.36 10 5 C8.35 5 6.7 5 5 5 Z " fill="#6C6D71" transform="translate(154,153)"/>
<path d="M0 0 C1.98 0 3.96 0 6 0 C6.33 4.62 6.66 9.24 7 14 C8.32 14.33 9.64 14.66 11 15 C12.94090826 13.05909174 12.39919435 9.52706098 12.5625 6.9375 C12.64628906 5.64714844 12.73007812 4.35679687 12.81640625 3.02734375 C12.87699219 2.02832031 12.93757813 1.02929688 13 0 C14.98 0 16.96 0 19 0 C19.13559675 2.56428515 19.23433188 5.12135216 19.3125 7.6875 C19.35439453 8.40873047 19.39628906 9.12996094 19.43945312 9.87304688 C19.53360752 13.99700956 19.32977715 15.56144819 16.76171875 18.9765625 C13.24314542 21.55452712 11.39459791 21.82666913 7.16015625 21.515625 C4.34805114 20.8443811 2.48441459 19.70730102 0.796875 17.33203125 C-1.06334067 11.8881648 -0.32495759 5.67592589 0 0 Z " fill="#6C6D70" transform="translate(332,153)"/>
<path d="M0 0 C1.98 0 3.96 0 6 0 C6.33 4.95 6.66 9.9 7 15 C8.65 15 10.3 15 12 15 C13.41634833 12.16730334 13.3463005 9.52533562 13.5625 6.375 C13.64628906 5.18648437 13.73007812 3.99796875 13.81640625 2.7734375 C13.87699219 1.85820312 13.93757813 0.94296875 14 0 C15.98 0 17.96 0 20 0 C20.054348 2.0622048 20.09294961 4.12482816 20.125 6.1875 C20.14820313 7.33605469 20.17140625 8.48460937 20.1953125 9.66796875 C19.95240363 13.81199402 19.16059027 16.70549547 16.375 19.8125 C12.92913631 21.53543184 9.71917771 21.79696665 6 21 C2.48967259 18.31123858 0.73026626 16.32074205 0 12 C-0.06743348 9.91765408 -0.08514472 7.83331443 -0.0625 5.75 C-0.04896484 4.13351563 -0.04896484 4.13351563 -0.03515625 2.484375 C-0.02355469 1.66453125 -0.01195312 0.8446875 0 0 Z " fill="#6C6D70" transform="translate(277,153)"/>
<path d="M0 0 C0.33 0.66 0.66 1.32 1 2 C0.01 3.32 -0.98 4.64 -2 6 C-4.31 5.34 -6.62 4.68 -9 4 C-9 4.66 -9 5.32 -9 6 C-7.6696875 6.0928125 -7.6696875 6.0928125 -6.3125 6.1875 C-2.16264437 7.20538912 -0.54839048 8.60214602 2 12 C2 14.92662714 1.52172752 16.32224181 -0.25390625 18.62890625 C-2.57555748 20.45194782 -4.01475554 20.36963636 -6.9375 20.3125 C-7.79214844 20.30863281 -8.64679688 20.30476563 -9.52734375 20.30078125 C-12.10028192 19.98780141 -13.77505475 19.29573378 -16 18 C-15.34 16.35 -14.68 14.7 -14 13 C-9.545 13.99 -9.545 13.99 -5 15 C-5 14.34 -5 13.68 -5 13 C-7.97 12.01 -10.94 11.02 -14 10 C-15.33783784 3.67567568 -15.33783784 3.67567568 -13.8125 0.625 C-9.41232164 -3.3199875 -5.14425749 -1.60230971 0 0 Z " fill="#6C6D70" transform="translate(114,154)"/>
<path d="M0 0 C6.6 0 13.2 0 20 0 C20 4.29 20 8.58 20 13 C13.4 13 6.8 13 0 13 C0 8.71 0 4.42 0 0 Z " fill="#FBF3F4" transform="translate(212,38)"/>
<path d="M0 0 C4.95 0 9.9 0 15 0 C15 1.65 15 3.3 15 5 C12.03 5 9.06 5 6 5 C6 5.99 6 6.98 6 8 C8.64 8 11.28 8 14 8 C14 9.65 14 11.3 14 13 C11.36 13 8.72 13 6 13 C6 13.99 6 14.98 6 16 C8.97 16 11.94 16 15 16 C15 17.65 15 19.3 15 21 C10.05 21 5.1 21 0 21 C0 14.07 0 7.14 0 0 Z " fill="#6D6E71" transform="translate(233,153)"/>
<path d="M0 0 C4.95 0 9.9 0 15 0 C15 1.65 15 3.3 15 5 C12.03 5 9.06 5 6 5 C6 5.99 6 6.98 6 8 C8.64 8 11.28 8 14 8 C14 9.65 14 11.3 14 13 C11.36 13 8.72 13 6 13 C6 13.99 6 14.98 6 16 C8.97 16 11.94 16 15 16 C15 17.65 15 19.3 15 21 C10.05 21 5.1 21 0 21 C0 14.07 0 7.14 0 0 Z " fill="#6C6D70" transform="translate(136,153)"/>
<path d="M0 0 C6.27 0 12.54 0 19 0 C19 4.29 19 8.58 19 13 C12.73 13 6.46 13 0 13 C0 8.71 0 4.42 0 0 Z " fill="#015BA6" transform="translate(193,38)"/>
<path d="M0 0 C0.53625 0.639375 1.0725 1.27875 1.625 1.9375 C0.635 3.4225 0.635 3.4225 -0.375 4.9375 C-3.345 4.6075 -6.315 4.2775 -9.375 3.9375 C-11.70891203 6.71864056 -11.70891203 6.71864056 -11 9.625 C-10.690625 10.7696875 -10.690625 10.7696875 -10.375 11.9375 C-7.46017222 12.74717438 -5.91386783 13.15595993 -3.0625 12 C-2.505625 11.649375 -1.94875 11.29875 -1.375 10.9375 C-0.385 11.5975 0.605 12.2575 1.625 12.9375 C1.29512361 15.41157292 1.04527913 16.6012767 -0.9375 18.1875 C-4.45254317 19.26905174 -7.76295767 19.51916089 -11.375 18.9375 C-14.43548212 17.14113006 -15.94572503 15.65946245 -17.75 12.625 C-18.59594728 8.98742671 -18.34185978 6.54710985 -17.375 2.9375 C-15.24363147 0.28769047 -13.54892908 -1.53233848 -10.4375 -2.9375 C-6.14459409 -3.19767612 -3.30047634 -2.86620314 0 0 Z " fill="#6B6C6F" transform="translate(274.375,155.0625)"/>
<path d="M0 0 C6.27 0 12.54 0 19 0 C19 1.65 19 3.3 19 5 C17.02 5 15.04 5 13 5 C13 10.28 13 15.56 13 21 C11.02 21 9.04 21 7 21 C7 15.72 7 10.44 7 5 C4.69 5 2.38 5 0 5 C0 3.35 0 1.7 0 0 Z " fill="#78787B" transform="translate(312,153)"/>
<path d="M0 0 C5.94 0 11.88 0 18 0 C18 1.65 18 3.3 18 5 C16.02 5 14.04 5 12 5 C12 10.28 12 15.56 12 21 C10.02 21 8.04 21 6 21 C6 15.72 6 10.44 6 5 C4.02 5 2.04 5 0 5 C0 3.35 0 1.7 0 0 Z " fill="#6C6D70" transform="translate(116,153)"/>
<path d="M0 0 C1.98 0 3.96 0 6 0 C6 8.91 6 17.82 6 27 C4.02 27 2.04 27 0 27 C0 18.09 0 9.18 0 0 Z " fill="#005AA6" transform="translate(275,89)"/>
<path d="M0 0 C1.65 0 3.3 0 5 0 C5 5.28 5 10.56 5 16 C8.3 16 11.6 16 15 16 C15 17.65 15 19.3 15 21 C10.05 21 5.1 21 0 21 C0 14.07 0 7.14 0 0 Z " fill="#6C6D70" transform="translate(300,153)"/>
<path d="M0 0 C5 1 5 1 6.8125 3.0625 C7.204375 3.701875 7.59625 4.34125 8 5 C8.33 3.35 8.66 1.7 9 0 C10.32 0 11.64 0 13 0 C13 4.62 13 9.24 13 14 C8 13 8 13 6.1875 10.9375 C5.795625 10.298125 5.40375 9.65875 5 9 C4.67 10.65 4.34 12.3 4 14 C2.68 14 1.36 14 0 14 C0 9.38 0 4.76 0 0 Z " fill="#6C6D70" transform="translate(225,63)"/>
<path d="M0 0 C5 1 5 1 6.8125 3.0625 C7.204375 3.701875 7.59625 4.34125 8 5 C8.33 3.35 8.66 1.7 9 0 C10.32 0 11.64 0 13 0 C13 4.62 13 9.24 13 14 C8 13 8 13 6.1875 10.9375 C5.795625 10.298125 5.40375 9.65875 5 9 C4.67 10.65 4.34 12.3 4 14 C2.68 14 1.36 14 0 14 C0 9.38 0 4.76 0 0 Z " fill="#6A6C6F" transform="translate(164,63)"/>
<path d="M0 0 C5 1 5 1 6.8125 3.0625 C7.204375 3.701875 7.59625 4.34125 8 5 C8.33 3.35 8.66 1.7 9 0 C10.32 0 11.64 0 13 0 C13 4.62 13 9.24 13 14 C11.68 14 10.36 14 9 14 C6.75 11.5 6.75 11.5 5 9 C4.67 10.65 4.34 12.3 4 14 C2.68 14 1.36 14 0 14 C0 9.38 0 4.76 0 0 Z " fill="#6C6D70" transform="translate(329,63)"/>
<path d="M0 0 C7.71484375 -0.09765625 7.71484375 -0.09765625 10 0 C11.72818125 1.72818125 11.45151518 4.0807165 11.6875 6.4375 C11.79449219 7.42621094 11.90148437 8.41492188 12.01171875 9.43359375 C12 12 12 12 10 14 C7.6171875 14.1953125 7.6171875 14.1953125 4.875 14.125 C2.461875 14.063125 2.461875 14.063125 0 14 C0 9.38 0 4.76 0 0 Z M4 3 C4 3.66 4 4.32 4 5 C5.32 4.67 6.64 4.34 8 4 C6.68 3.67 5.36 3.34 4 3 Z M4 8 C4 8.99 4 9.98 4 11 C5.32 11 6.64 11 8 11 C7.67 10.01 7.34 9.02 7 8 C6.01 8 5.02 8 4 8 Z " fill="#6B6C6F" transform="translate(86,63)"/>
<path d="M0 0 C1.875 0.3828125 1.875 0.3828125 3.875 2.0078125 C5.17118989 5.0862635 5.35788863 7.07157618 4.875 10.3828125 C3.3125 12.7578125 3.3125 12.7578125 0.875 14.3828125 C-2.6875 14.8828125 -2.6875 14.8828125 -6.125 14.3828125 C-8.76269276 12.17055406 -9.07423246 10.78895282 -9.5 7.3828125 C-8.70841914 1.0501656 -6.03632475 -0.33288556 0 0 Z M-4.125 3.3828125 C-5.48118499 4.50815355 -5.48118499 4.50815355 -5.1875 7.4453125 C-5.166875 8.4146875 -5.14625 9.3840625 -5.125 10.3828125 C-3.23320797 11.0642948 -3.23320797 11.0642948 -1.125 11.3828125 C-0.465 10.7228125 0.195 10.0628125 0.875 9.3828125 C0.55458603 6.78000682 0.55458603 6.78000682 -0.125 4.3828125 C-2.07103274 3.79211236 -2.07103274 3.79211236 -4.125 3.3828125 Z " fill="#6C6C70" transform="translate(196.125,62.6171875)"/>
<path d="M0 0 C1.875 0.3125 1.875 0.3125 3.875 1.375 C5.46404125 4.45376742 5.23273097 6.91405579 4.875 10.3125 C3.8125 12.75 3.8125 12.75 1.875 14.3125 C-2.50355495 14.78163089 -4.42084707 14.78193529 -8.125 12.3125 C-9.6283557 5.65478188 -9.6283557 5.65478188 -8.1875 1.8125 C-5.42065856 -0.19974832 -3.36046038 -0.19767414 0 0 Z M-3.125 3.3125 C-3.785 3.9725 -4.445 4.6325 -5.125 5.3125 C-4.80458603 7.91530568 -4.80458603 7.91530568 -4.125 10.3125 C-3.135 10.6425 -2.145 10.9725 -1.125 11.3125 C-0.465 10.9825 0.195 10.6525 0.875 10.3125 C0.875 8.3325 0.875 6.3525 0.875 4.3125 C-1.01679203 3.6310177 -1.01679203 3.6310177 -3.125 3.3125 Z " fill="#696A6C" transform="translate(71.125,62.6875)"/>
<path d="M0 0 C0.66 0.33 1.32 0.66 2 1 C1.67 2.32 1.34 3.64 1 5 C-1.97 4.505 -1.97 4.505 -5 4 C-6.01111093 7.04913228 -6.01111093 7.04913228 -5 10 C-4.01 10 -3.02 10 -2 10 C-2.33 8.68 -2.66 7.36 -3 6 C-1.02 6 0.96 6 3 6 C3 8.64 3 11.28 3 14 C1.39667209 14.08121924 -0.20784026 14.13929134 -1.8125 14.1875 C-2.70582031 14.22230469 -3.59914063 14.25710937 -4.51953125 14.29296875 C-7 14 -7 14 -8.7734375 12.671875 C-10.60236109 10.17894731 -10.81307417 8.05312186 -11 5 C-8.98248646 -0.74215392 -5.61020688 -0.20036453 0 0 Z " fill="#696A6D" transform="translate(50,63)"/>
<path d="M0 0 C1.98 0 3.96 0 6 0 C6 6.93 6 13.86 6 21 C4.02 21 2.04 21 0 21 C0 14.07 0 7.14 0 0 Z " fill="#6C6E70" transform="translate(173,153)"/>
<path d="M0 0 C1.98 0 3.96 0 6 0 C6 6.93 6 13.86 6 21 C4.02 21 2.04 21 0 21 C0 14.07 0 7.14 0 0 Z " fill="#6C6E70" transform="translate(59,153)"/>
<path d="M0 0 C1.9375 1 1.9375 1 3 3 C3.52960415 6.58042244 3.65886567 9.75978228 1.9375 13 C-1.21863437 14.62897258 -3.52151049 14.48820905 -7 14 C-9.5 11.875 -9.5 11.875 -11 9 C-10.936318 5.81590023 -10.51040601 3.85067668 -8.875 1.125 C-5.87553214 -0.67468071 -3.40613332 -0.36494286 0 0 Z M-5 3 C-5.66 3.66 -6.32 4.32 -7 5 C-6.67958603 7.60280568 -6.67958603 7.60280568 -6 10 C-4.02 10.495 -4.02 10.495 -2 11 C-0.80161791 8.67145537 -0.80161791 8.67145537 0 6 C-0.66 5.01 -1.32 4.02 -2 3 C-2.99 3 -3.98 3 -5 3 Z " fill="#6D6E70" transform="translate(316,63)"/>
<path d="M0 0 C6.8359375 -0.1953125 6.8359375 -0.1953125 9 0 C11 2 11 2 11.125 4.375 C11.08375 5.24125 11.0425 6.1075 11 7 C10.78918149 10.89459074 10.78918149 10.89459074 12 14 C9.75 14.25 9.75 14.25 7 14 C4.6875 12 4.6875 12 3 10 C3 11.32 3 12.64 3 14 C2.01 14 1.02 14 0 14 C0 9.38 0 4.76 0 0 Z M3 3 C3 3.99 3 4.98 3 6 C4.32 6 5.64 6 7 6 C7 5.01 7 4.02 7 3 C5.68 3 4.36 3 3 3 Z " fill="#6B6C6F" transform="translate(143,63)"/>
<path d="M0 0 C2 2 2 2 3 5 C5.97 5.495 5.97 5.495 9 6 C7.625 8 7.625 8 6 10 C5.34 10 4.68 10 4 10 C4.66 12.31 5.32 14.62 6 17 C5.113125 16.443125 4.22625 15.88625 3.3125 15.3125 C1.6728125 14.6628125 1.6728125 14.6628125 0 14 C-2.87391821 15.17274994 -2.87391821 15.17274994 -5 17 C-4.67 15.02 -4.34 13.04 -4 11 C-4.66 10.54625 -5.32 10.0925 -6 9.625 C-6.66 9.08875 -7.32 8.5525 -8 8 C-8 7.34 -8 6.68 -8 6 C-6.576875 5.9071875 -6.576875 5.9071875 -5.125 5.8125 C-4.09375 5.544375 -3.0625 5.27625 -2 5 C-0.54708727 2.53744315 -0.54708727 2.53744315 0 0 Z " fill="#E91C22" transform="translate(376,94)"/>
<path d="M0 0 C0.66 0.33 1.32 0.66 2 1 C2.625 3.5625 2.625 3.5625 3 6 C4.98 6 6.96 6 9 6 C8 9 8 9 6 10 C6 12.31 6 14.62 6 17 C5.01 16.34 4.02 15.68 3 15 C0.36565746 15.32126128 -1.62710097 15.81355048 -4 17 C-3.9071875 15.329375 -3.9071875 15.329375 -3.8125 13.625 C-3.874375 12.42875 -3.93625 11.2325 -4 10 C-4.99 9.34 -5.98 8.68 -7 8 C-7 7.34 -7 6.68 -7 6 C-5.02 6 -3.04 6 -1 6 C-0.67 4.02 -0.34 2.04 0 0 Z " fill="#E91C22" transform="translate(47,94)"/>
<path d="M0 0 C3.63 0 7.26 0 11 0 C11 0.99 11 1.98 11 3 C8.69 3 6.38 3 4 3 C4 3.66 4 4.32 4 5 C5.98 5 7.96 5 10 5 C10 5.99 10 6.98 10 8 C8.02 8 6.04 8 4 8 C4 8.99 4 9.98 4 11 C6.31 11 8.62 11 11 11 C11 11.99 11 12.98 11 14 C7.37 14 3.74 14 0 14 C0 9.38 0 4.76 0 0 Z " fill="#6C6E70" transform="translate(122,63)"/>
<path d="M0 0 C1.65 0.33 3.3 0.66 5 1 C6.36328125 3.43359375 6.36328125 3.43359375 7.3125 6.4375 C7.63863281 7.42621094 7.96476562 8.41492188 8.30078125 9.43359375 C9 12 9 12 9 14 C7.68 14 6.36 14 5 14 C4.67 13.34 4.34 12.68 4 12 C1.97536745 11.34786708 1.97536745 11.34786708 0 11 C-0.33 11.99 -0.66 12.98 -1 14 C-2.32 13.67 -3.64 13.34 -5 13 C-3.35 8.71 -1.7 4.42 0 0 Z M2 6 C1.67 6.66 1.34 7.32 1 8 C1.66 8 2.32 8 3 8 C2.67 7.34 2.34 6.68 2 6 Z " fill="#6E6F72" transform="translate(356,63)"/>
<path d="M0 0 C1.65 0.33 3.3 0.66 5 1 C6.36328125 3.43359375 6.36328125 3.43359375 7.3125 6.4375 C7.63863281 7.42621094 7.96476562 8.41492188 8.30078125 9.43359375 C9 12 9 12 9 14 C7.68 14 6.36 14 5 14 C4.67 13.34 4.34 12.68 4 12 C1.97536745 11.34786708 1.97536745 11.34786708 0 11 C-0.33 11.99 -0.66 12.98 -1 14 C-2.32 13.67 -3.64 13.34 -5 13 C-3.35 8.71 -1.7 4.42 0 0 Z M2 6 C1.67 6.66 1.34 7.32 1 8 C1.66 8 2.32 8 3 8 C2.67 7.34 2.34 6.68 2 6 Z " fill="#6C6D70" transform="translate(252,63)"/>
<path d="M0 0 C0.66 1.32 1.32 2.64 2 4 C-1.19073219 5.0635774 -1.93375957 4.89019883 -5 4 C-5.66 4 -6.32 4 -7 4 C-6.34 5.98 -5.68 7.96 -5 10 C-3.02 9.67 -1.04 9.34 1 9 C1 10.32 1 11.64 1 13 C-1.84083641 14.42041821 -3.85477278 14.31452272 -7 14 C-9.375 12.375 -9.375 12.375 -11 10 C-11.48288863 6.68876368 -11.29618989 4.703451 -10 1.625 C-6.82368122 -0.95575901 -4.00554268 -0.26265854 0 0 Z " fill="#6A6B6D" transform="translate(280,63)"/>
<path d="M0 0 C1.65 0 3.3 0 5 0 C5 6.93 5 13.86 5 21 C3.35 21 1.7 21 0 21 C0 14.07 0 7.14 0 0 Z " fill="#6C6D70" transform="translate(91,153)"/>
<path d="M0 0 C1.32 0 2.64 0 4 0 C4 3.63 4 7.26 4 11 C6.31 11 8.62 11 11 11 C11 11.99 11 12.98 11 14 C7.37 14 3.74 14 0 14 C0 9.38 0 4.76 0 0 Z " fill="#6C6E71" transform="translate(374,63)"/>
<path d="M0 0 C1.32 0 2.64 0 4 0 C4 4.62 4 9.24 4 14 C2.68 14 1.36 14 0 14 C0 9.38 0 4.76 0 0 Z " fill="#6C6D71" transform="translate(108,63)"/>
<path d="M0 0 C0.99 0 1.98 0 3 0 C3 4.62 3 9.24 3 14 C2.01 14 1.02 14 0 14 C0 9.38 0 4.76 0 0 Z " fill="#6C6D70" transform="translate(292,63)"/>
</svg>
